<mxfile host="app.diagrams.net" agent="Mozilla/5.0 (Windows NT 10.0; Win64; x64) AppleWebKit/537.36 (KHTML, like Gecko) Chrome/136.0.0.0 Safari/537.36 Edg/136.0.0.0" version="27.0.6">
  <diagram name="Page-1" id="ljjpJZf_MDKBFqsCf7DH">
    <mxGraphModel dx="1630" dy="902" grid="1" gridSize="10" guides="1" tooltips="1" connect="1" arrows="1" fold="1" page="1" pageScale="1" pageWidth="850" pageHeight="1100" math="0" shadow="0">
      <root>
        <mxCell id="0" />
        <mxCell id="1" parent="0" />
        <mxCell id="XpHpszUaNS6xZt6m8uRX-1" value="Sơ đồ tuần tự chức năng đăng ký khóa học" style="swimlane;whiteSpace=wrap;html=1;startSize=23;fontSize=14;" parent="1" vertex="1">
          <mxGeometry x="60" y="260" width="1190" height="570" as="geometry" />
        </mxCell>
        <mxCell id="XpHpszUaNS6xZt6m8uRX-2" value="" style="shape=umlLifeline;perimeter=lifelinePerimeter;whiteSpace=wrap;html=1;container=1;dropTarget=0;collapsible=0;recursiveResize=0;outlineConnect=0;portConstraint=eastwest;newEdgeStyle={&quot;curved&quot;:0,&quot;rounded&quot;:0};participant=umlActor;" parent="XpHpszUaNS6xZt6m8uRX-1" vertex="1">
          <mxGeometry x="80" y="40" width="30" height="530" as="geometry" />
        </mxCell>
        <mxCell id="XpHpszUaNS6xZt6m8uRX-3" value="Giao diện" style="shape=umlLifeline;perimeter=lifelinePerimeter;whiteSpace=wrap;html=1;container=1;dropTarget=0;collapsible=0;recursiveResize=0;outlineConnect=0;portConstraint=eastwest;newEdgeStyle={&quot;curved&quot;:0,&quot;rounded&quot;:0};" parent="XpHpszUaNS6xZt6m8uRX-1" vertex="1">
          <mxGeometry x="280" y="40" width="90" height="530" as="geometry" />
        </mxCell>
        <mxCell id="XpHpszUaNS6xZt6m8uRX-4" value="" style="html=1;points=[[0,0,0,0,5],[0,1,0,0,-5],[1,0,0,0,5],[1,1,0,0,-5]];perimeter=orthogonalPerimeter;outlineConnect=0;targetShapes=umlLifeline;portConstraint=eastwest;newEdgeStyle={&quot;curved&quot;:0,&quot;rounded&quot;:0};" parent="XpHpszUaNS6xZt6m8uRX-3" vertex="1">
          <mxGeometry x="40" y="70" width="10" height="130" as="geometry" />
        </mxCell>
        <mxCell id="XpHpszUaNS6xZt6m8uRX-58" value="" style="html=1;points=[[0,0,0,0,5],[0,1,0,0,-5],[1,0,0,0,5],[1,1,0,0,-5]];perimeter=orthogonalPerimeter;outlineConnect=0;targetShapes=umlLifeline;portConstraint=eastwest;newEdgeStyle={&quot;curved&quot;:0,&quot;rounded&quot;:0};" parent="XpHpszUaNS6xZt6m8uRX-3" vertex="1">
          <mxGeometry x="40" y="450" width="10" height="40" as="geometry" />
        </mxCell>
        <mxCell id="XpHpszUaNS6xZt6m8uRX-6" value="Web Client" style="shape=umlLifeline;perimeter=lifelinePerimeter;whiteSpace=wrap;html=1;container=1;dropTarget=0;collapsible=0;recursiveResize=0;outlineConnect=0;portConstraint=eastwest;newEdgeStyle={&quot;curved&quot;:0,&quot;rounded&quot;:0};" parent="XpHpszUaNS6xZt6m8uRX-1" vertex="1">
          <mxGeometry x="510" y="40" width="90" height="530" as="geometry" />
        </mxCell>
        <mxCell id="XpHpszUaNS6xZt6m8uRX-7" value="&lt;span style=&quot;color: rgba(0, 0, 0, 0); font-family: monospace; font-size: 0px; text-align: start;&quot;&gt;%3CmxGraphModel%3E%3Croot%3E%3CmxCell%20id%3D%220%22%2F%3E%3CmxCell%20id%3D%221%22%20parent%3D%220%22%2F%3E%3CmxCell%20id%3D%222%22%20value%3D%22G%E1%BB%8Di%20API%20t%C3%ACm%20ki%E1%BA%BFm%20d%E1%BB%AF%20li%E1%BB%87u%22%20style%3D%22html%3D1%3BverticalAlign%3Dbottom%3BendArrow%3Dblock%3Bcurved%3D0%3Brounded%3D0%3B%22%20edge%3D%221%22%20parent%3D%221%22%3E%3CmxGeometry%20width%3D%2280%22%20relative%3D%221%22%20as%3D%22geometry%22%3E%3CmxPoint%20x%3D%22360%22%20y%3D%22730%22%20as%3D%22sourcePoint%22%2F%3E%3CmxPoint%20x%3D%22580%22%20y%3D%22730%22%20as%3D%22targetPoint%22%2F%3E%3C%2FmxGeometry%3E%3C%2FmxCell%3E%3C%2Froot%3E%3C%2FmxGraphModel%3E&lt;/span&gt;&lt;span style=&quot;color: rgba(0, 0, 0, 0); font-family: monospace; font-size: 0px; text-align: start;&quot;&gt;%3CmxGraphModel%3E%3Croot%3E%3CmxCell%20id%3D%220%22%2F%3E%3CmxCell%20id%3D%221%22%20parent%3D%220%22%2F%3E%3CmxCell%20id%3D%222%22%20value%3D%22G%E1%BB%8Di%20API%20t%C3%ACm%20ki%E1%BA%BFm%20d%E1%BB%AF%20li%E1%BB%87u%22%20style%3D%22html%3D1%3BverticalAlign%3Dbottom%3BendArrow%3Dblock%3Bcurved%3D0%3Brounded%3D0%3B%22%20edge%3D%221%22%20parent%3D%221%22%3E%3CmxGeometry%20width%3D%2280%22%20relative%3D%221%22%20as%3D%22geometry%22%3E%3CmxPoint%20x%3D%22360%22%20y%3D%22730%22%20as%3D%22sourcePoint%22%2F%3E%3CmxPoint%20x%3D%22580%22%20y%3D%22730%22%20as%3D%22targetPoint%22%2F%3E%3C%2FmxGeometry%3E%3C%2FmxCell%3E%3C%2Froot%3E%3C%2FmxGraphModel%3E&lt;/span&gt;" style="html=1;points=[[0,0,0,0,5],[0,1,0,0,-5],[1,0,0,0,5],[1,1,0,0,-5]];perimeter=orthogonalPerimeter;outlineConnect=0;targetShapes=umlLifeline;portConstraint=eastwest;newEdgeStyle={&quot;curved&quot;:0,&quot;rounded&quot;:0};" parent="XpHpszUaNS6xZt6m8uRX-6" vertex="1">
          <mxGeometry x="40" y="80" width="10" height="110" as="geometry" />
        </mxCell>
        <mxCell id="XpHpszUaNS6xZt6m8uRX-56" value="" style="html=1;points=[[0,0,0,0,5],[0,1,0,0,-5],[1,0,0,0,5],[1,1,0,0,-5]];perimeter=orthogonalPerimeter;outlineConnect=0;targetShapes=umlLifeline;portConstraint=eastwest;newEdgeStyle={&quot;curved&quot;:0,&quot;rounded&quot;:0};" parent="XpHpszUaNS6xZt6m8uRX-6" vertex="1">
          <mxGeometry x="40" y="440" width="10" height="40" as="geometry" />
        </mxCell>
        <mxCell id="XpHpszUaNS6xZt6m8uRX-9" value="Web API" style="shape=umlLifeline;perimeter=lifelinePerimeter;whiteSpace=wrap;html=1;container=1;dropTarget=0;collapsible=0;recursiveResize=0;outlineConnect=0;portConstraint=eastwest;newEdgeStyle={&quot;curved&quot;:0,&quot;rounded&quot;:0};" parent="XpHpszUaNS6xZt6m8uRX-1" vertex="1">
          <mxGeometry x="700" y="40" width="90" height="530" as="geometry" />
        </mxCell>
        <mxCell id="XpHpszUaNS6xZt6m8uRX-10" value="" style="html=1;points=[[0,0,0,0,5],[0,1,0,0,-5],[1,0,0,0,5],[1,1,0,0,-5]];perimeter=orthogonalPerimeter;outlineConnect=0;targetShapes=umlLifeline;portConstraint=eastwest;newEdgeStyle={&quot;curved&quot;:0,&quot;rounded&quot;:0};" parent="XpHpszUaNS6xZt6m8uRX-9" vertex="1">
          <mxGeometry x="40" y="90" width="10" height="80" as="geometry" />
        </mxCell>
        <mxCell id="XpHpszUaNS6xZt6m8uRX-54" value="" style="html=1;points=[[0,0,0,0,5],[0,1,0,0,-5],[1,0,0,0,5],[1,1,0,0,-5]];perimeter=orthogonalPerimeter;outlineConnect=0;targetShapes=umlLifeline;portConstraint=eastwest;newEdgeStyle={&quot;curved&quot;:0,&quot;rounded&quot;:0};" parent="XpHpszUaNS6xZt6m8uRX-9" vertex="1">
          <mxGeometry x="40" y="430" width="10" height="40" as="geometry" />
        </mxCell>
        <mxCell id="XpHpszUaNS6xZt6m8uRX-12" value="Chọn khóa học muốn đăng ký" style="html=1;verticalAlign=bottom;endArrow=block;curved=0;rounded=0;" parent="XpHpszUaNS6xZt6m8uRX-1" edge="1">
          <mxGeometry width="80" relative="1" as="geometry">
            <mxPoint x="100" y="120" as="sourcePoint" />
            <mxPoint x="320" y="120" as="targetPoint" />
          </mxGeometry>
        </mxCell>
        <mxCell id="XpHpszUaNS6xZt6m8uRX-13" value="Gửi yêu đăng ký khóa học" style="html=1;verticalAlign=bottom;endArrow=block;curved=0;rounded=0;" parent="XpHpszUaNS6xZt6m8uRX-1" edge="1">
          <mxGeometry width="80" relative="1" as="geometry">
            <mxPoint x="330" y="130" as="sourcePoint" />
            <mxPoint x="550" y="130" as="targetPoint" />
          </mxGeometry>
        </mxCell>
        <mxCell id="XpHpszUaNS6xZt6m8uRX-14" value="Gọi API đăng ký khóa học" style="html=1;verticalAlign=bottom;endArrow=block;curved=0;rounded=0;" parent="XpHpszUaNS6xZt6m8uRX-1" target="XpHpszUaNS6xZt6m8uRX-10" edge="1">
          <mxGeometry width="80" relative="1" as="geometry">
            <mxPoint x="560" y="140" as="sourcePoint" />
            <mxPoint x="720" y="140" as="targetPoint" />
          </mxGeometry>
        </mxCell>
        <mxCell id="XpHpszUaNS6xZt6m8uRX-15" value="Payment&lt;br&gt;Gateway" style="shape=umlLifeline;perimeter=lifelinePerimeter;whiteSpace=wrap;html=1;container=1;dropTarget=0;collapsible=0;recursiveResize=0;outlineConnect=0;portConstraint=eastwest;newEdgeStyle={&quot;curved&quot;:0,&quot;rounded&quot;:0};" parent="XpHpszUaNS6xZt6m8uRX-1" vertex="1">
          <mxGeometry x="880" y="40" width="90" height="530" as="geometry" />
        </mxCell>
        <mxCell id="XpHpszUaNS6xZt6m8uRX-40" value="" style="html=1;points=[[0,0,0,0,5],[0,1,0,0,-5],[1,0,0,0,5],[1,1,0,0,-5]];perimeter=orthogonalPerimeter;outlineConnect=0;targetShapes=umlLifeline;portConstraint=eastwest;newEdgeStyle={&quot;curved&quot;:0,&quot;rounded&quot;:0};" parent="XpHpszUaNS6xZt6m8uRX-15" vertex="1">
          <mxGeometry x="40" y="210" width="10" height="190" as="geometry" />
        </mxCell>
        <mxCell id="XpHpszUaNS6xZt6m8uRX-31" value="MySQL" style="shape=umlLifeline;perimeter=lifelinePerimeter;whiteSpace=wrap;html=1;container=1;dropTarget=0;collapsible=0;recursiveResize=0;outlineConnect=0;portConstraint=eastwest;newEdgeStyle={&quot;curved&quot;:0,&quot;rounded&quot;:0};" parent="XpHpszUaNS6xZt6m8uRX-1" vertex="1">
          <mxGeometry x="1060" y="40" width="90" height="530" as="geometry" />
        </mxCell>
        <mxCell id="XpHpszUaNS6xZt6m8uRX-32" value="" style="html=1;points=[[0,0,0,0,5],[0,1,0,0,-5],[1,0,0,0,5],[1,1,0,0,-5]];perimeter=orthogonalPerimeter;outlineConnect=0;targetShapes=umlLifeline;portConstraint=eastwest;newEdgeStyle={&quot;curved&quot;:0,&quot;rounded&quot;:0};" parent="XpHpszUaNS6xZt6m8uRX-31" vertex="1">
          <mxGeometry x="40" y="100" width="10" height="50" as="geometry" />
        </mxCell>
        <mxCell id="XpHpszUaNS6xZt6m8uRX-53" value="" style="html=1;points=[[0,0,0,0,5],[0,1,0,0,-5],[1,0,0,0,5],[1,1,0,0,-5]];perimeter=orthogonalPerimeter;outlineConnect=0;targetShapes=umlLifeline;portConstraint=eastwest;newEdgeStyle={&quot;curved&quot;:0,&quot;rounded&quot;:0};" parent="XpHpszUaNS6xZt6m8uRX-31" vertex="1">
          <mxGeometry x="40" y="310" width="10" height="140" as="geometry" />
        </mxCell>
        <mxCell id="XpHpszUaNS6xZt6m8uRX-34" value="Lưu tạm thông tin khóa học đăng ký vào CSDL&lt;br&gt;(Trạng thái: pending)" style="html=1;verticalAlign=bottom;endArrow=block;curved=0;rounded=0;" parent="XpHpszUaNS6xZt6m8uRX-1" edge="1">
          <mxGeometry width="80" relative="1" as="geometry">
            <mxPoint x="750" y="150" as="sourcePoint" />
            <mxPoint x="1100" y="150" as="targetPoint" />
          </mxGeometry>
        </mxCell>
        <mxCell id="XpHpszUaNS6xZt6m8uRX-35" value="Xác nhận đã lưu&amp;nbsp;" style="html=1;verticalAlign=bottom;endArrow=open;dashed=1;endSize=8;curved=0;rounded=0;" parent="XpHpszUaNS6xZt6m8uRX-1" edge="1">
          <mxGeometry relative="1" as="geometry">
            <mxPoint x="1100" y="180" as="sourcePoint" />
            <mxPoint x="750" y="180" as="targetPoint" />
          </mxGeometry>
        </mxCell>
        <mxCell id="XpHpszUaNS6xZt6m8uRX-36" value="Trả về thông tin thanh toán" style="html=1;verticalAlign=bottom;endArrow=open;dashed=1;endSize=8;curved=0;rounded=0;" parent="XpHpszUaNS6xZt6m8uRX-1" target="XpHpszUaNS6xZt6m8uRX-7" edge="1">
          <mxGeometry relative="1" as="geometry">
            <mxPoint x="740" y="190" as="sourcePoint" />
            <mxPoint x="390" y="190" as="targetPoint" />
          </mxGeometry>
        </mxCell>
        <mxCell id="XpHpszUaNS6xZt6m8uRX-37" value="Chuyển hướng giao diện thanh toán" style="html=1;verticalAlign=bottom;endArrow=open;dashed=1;endSize=8;curved=0;rounded=0;" parent="XpHpszUaNS6xZt6m8uRX-1" target="XpHpszUaNS6xZt6m8uRX-4" edge="1">
          <mxGeometry relative="1" as="geometry">
            <mxPoint x="550" y="200" as="sourcePoint" />
            <mxPoint x="340" y="200" as="targetPoint" />
          </mxGeometry>
        </mxCell>
        <mxCell id="XpHpszUaNS6xZt6m8uRX-38" value="Hiển thị giao diện thanh toán" style="html=1;verticalAlign=bottom;endArrow=open;dashed=1;endSize=8;curved=0;rounded=0;" parent="XpHpszUaNS6xZt6m8uRX-1" edge="1">
          <mxGeometry relative="1" as="geometry">
            <mxPoint x="320" y="210" as="sourcePoint" />
            <mxPoint x="100" y="210" as="targetPoint" />
          </mxGeometry>
        </mxCell>
        <mxCell id="XpHpszUaNS6xZt6m8uRX-39" value="Thực hiện thanh toán ở cổng thanh toán điện tử" style="html=1;verticalAlign=bottom;endArrow=block;curved=0;rounded=0;" parent="XpHpszUaNS6xZt6m8uRX-1" edge="1">
          <mxGeometry width="80" relative="1" as="geometry">
            <mxPoint x="100" y="260" as="sourcePoint" />
            <mxPoint x="920" y="260" as="targetPoint" />
          </mxGeometry>
        </mxCell>
        <mxCell id="XpHpszUaNS6xZt6m8uRX-42" value="Trả về kết quả giao dịch" style="html=1;verticalAlign=bottom;endArrow=open;dashed=1;endSize=8;curved=0;rounded=0;" parent="XpHpszUaNS6xZt6m8uRX-1" edge="1">
          <mxGeometry relative="1" as="geometry">
            <mxPoint x="920" y="300" as="sourcePoint" />
            <mxPoint x="750" y="300" as="targetPoint" />
          </mxGeometry>
        </mxCell>
        <mxCell id="XpHpszUaNS6xZt6m8uRX-41" value="" style="html=1;points=[[0,0,0,0,5],[0,1,0,0,-5],[1,0,0,0,5],[1,1,0,0,-5]];perimeter=orthogonalPerimeter;outlineConnect=0;targetShapes=umlLifeline;portConstraint=eastwest;newEdgeStyle={&quot;curved&quot;:0,&quot;rounded&quot;:0};" parent="XpHpszUaNS6xZt6m8uRX-1" vertex="1">
          <mxGeometry x="740" y="290" width="10" height="160" as="geometry" />
        </mxCell>
        <mxCell id="XpHpszUaNS6xZt6m8uRX-43" value="alt" style="shape=umlFrame;whiteSpace=wrap;html=1;pointerEvents=0;" parent="XpHpszUaNS6xZt6m8uRX-1" vertex="1">
          <mxGeometry x="20" y="320" width="940" height="110" as="geometry" />
        </mxCell>
        <mxCell id="XpHpszUaNS6xZt6m8uRX-44" value="" style="endArrow=none;dashed=1;html=1;rounded=0;exitX=0.002;exitY=0.542;exitDx=0;exitDy=0;exitPerimeter=0;entryX=1.001;entryY=0.542;entryDx=0;entryDy=0;entryPerimeter=0;" parent="XpHpszUaNS6xZt6m8uRX-1" edge="1">
          <mxGeometry width="50" height="50" relative="1" as="geometry">
            <mxPoint x="20.00000000000011" y="369.5800000000001" as="sourcePoint" />
            <mxPoint x="959.0600000000001" y="369.5800000000001" as="targetPoint" />
          </mxGeometry>
        </mxCell>
        <mxCell id="XpHpszUaNS6xZt6m8uRX-45" value="&lt;span style=&quot;color: rgb(0, 0, 0); font-family: Helvetica; font-size: 12px; font-style: normal; font-variant-ligatures: normal; font-variant-caps: normal; font-weight: 400; letter-spacing: normal; orphans: 2; text-align: center; text-indent: 0px; text-transform: none; widows: 2; word-spacing: 0px; -webkit-text-stroke-width: 0px; white-space: normal; background-color: rgb(236, 236, 236); text-decoration-thickness: initial; text-decoration-style: initial; text-decoration-color: initial; float: none; display: inline !important;&quot;&gt;IF[Giao dịch thành công]&lt;/span&gt;" style="text;whiteSpace=wrap;html=1;" parent="XpHpszUaNS6xZt6m8uRX-1" vertex="1">
          <mxGeometry x="100" y="320" width="140" height="40" as="geometry" />
        </mxCell>
        <mxCell id="XpHpszUaNS6xZt6m8uRX-46" value="&lt;span style=&quot;color: rgb(0, 0, 0); font-family: Helvetica; font-size: 12px; font-style: normal; font-variant-ligatures: normal; font-variant-caps: normal; font-weight: 400; letter-spacing: normal; orphans: 2; text-align: center; text-indent: 0px; text-transform: none; widows: 2; word-spacing: 0px; -webkit-text-stroke-width: 0px; white-space: normal; background-color: rgb(236, 236, 236); text-decoration-thickness: initial; text-decoration-style: initial; text-decoration-color: initial; float: none; display: inline !important;&quot;&gt;ELSE[Giao dịch thất bại]&lt;/span&gt;" style="text;whiteSpace=wrap;html=1;" parent="XpHpszUaNS6xZt6m8uRX-1" vertex="1">
          <mxGeometry x="100" y="370" width="140" height="40" as="geometry" />
        </mxCell>
        <mxCell id="XpHpszUaNS6xZt6m8uRX-47" value="Kết quả giao dịch thất bại" style="html=1;verticalAlign=bottom;endArrow=open;dashed=1;endSize=8;curved=0;rounded=0;" parent="XpHpszUaNS6xZt6m8uRX-1" edge="1">
          <mxGeometry relative="1" as="geometry">
            <mxPoint x="740" y="389.58" as="sourcePoint" />
            <mxPoint x="560.0000000000002" y="389.58" as="targetPoint" />
          </mxGeometry>
        </mxCell>
        <mxCell id="XpHpszUaNS6xZt6m8uRX-48" value="" style="html=1;points=[[0,0,0,0,5],[0,1,0,0,-5],[1,0,0,0,5],[1,1,0,0,-5]];perimeter=orthogonalPerimeter;outlineConnect=0;targetShapes=umlLifeline;portConstraint=eastwest;newEdgeStyle={&quot;curved&quot;:0,&quot;rounded&quot;:0};" parent="XpHpszUaNS6xZt6m8uRX-1" vertex="1">
          <mxGeometry x="550" y="380" width="10" height="50" as="geometry" />
        </mxCell>
        <mxCell id="XpHpszUaNS6xZt6m8uRX-49" value="" style="html=1;points=[[0,0,0,0,5],[0,1,0,0,-5],[1,0,0,0,5],[1,1,0,0,-5]];perimeter=orthogonalPerimeter;outlineConnect=0;targetShapes=umlLifeline;portConstraint=eastwest;newEdgeStyle={&quot;curved&quot;:0,&quot;rounded&quot;:0};" parent="XpHpszUaNS6xZt6m8uRX-1" vertex="1">
          <mxGeometry x="320" y="380" width="10" height="50" as="geometry" />
        </mxCell>
        <mxCell id="XpHpszUaNS6xZt6m8uRX-50" value="Kết quả giao dịch thất bại" style="html=1;verticalAlign=bottom;endArrow=open;dashed=1;endSize=8;curved=0;rounded=0;" parent="XpHpszUaNS6xZt6m8uRX-1" edge="1">
          <mxGeometry relative="1" as="geometry">
            <mxPoint x="545" y="404.7099999999999" as="sourcePoint" />
            <mxPoint x="330" y="404.7099999999999" as="targetPoint" />
          </mxGeometry>
        </mxCell>
        <mxCell id="XpHpszUaNS6xZt6m8uRX-51" value="Hiển thị giao dịch thất bại" style="html=1;verticalAlign=bottom;endArrow=open;dashed=1;endSize=8;curved=0;rounded=0;" parent="XpHpszUaNS6xZt6m8uRX-1" edge="1">
          <mxGeometry relative="1" as="geometry">
            <mxPoint x="320" y="419.9999999999999" as="sourcePoint" />
            <mxPoint x="94.81034482758605" y="420" as="targetPoint" />
          </mxGeometry>
        </mxCell>
        <mxCell id="XpHpszUaNS6xZt6m8uRX-52" value="Cập nhật lại trạng thái thanh toán trong CSDL&lt;br&gt;(Trạng thái: completed)" style="html=1;verticalAlign=bottom;endArrow=block;curved=0;rounded=0;" parent="XpHpszUaNS6xZt6m8uRX-1" edge="1">
          <mxGeometry width="80" relative="1" as="geometry">
            <mxPoint x="750" y="360.00000000000006" as="sourcePoint" />
            <mxPoint x="1100" y="360.00000000000006" as="targetPoint" />
          </mxGeometry>
        </mxCell>
        <mxCell id="XpHpszUaNS6xZt6m8uRX-55" value="Xác nhận đã cập nhật trạng thái thanh toán thành công" style="html=1;verticalAlign=bottom;endArrow=open;dashed=1;endSize=8;curved=0;rounded=0;" parent="XpHpszUaNS6xZt6m8uRX-1" edge="1">
          <mxGeometry relative="1" as="geometry">
            <mxPoint x="1100" y="480" as="sourcePoint" />
            <mxPoint x="750" y="480" as="targetPoint" />
          </mxGeometry>
        </mxCell>
        <mxCell id="XpHpszUaNS6xZt6m8uRX-57" value="Xác nhận thanh toán thành công" style="html=1;verticalAlign=bottom;endArrow=open;dashed=1;endSize=8;curved=0;rounded=0;" parent="XpHpszUaNS6xZt6m8uRX-1" edge="1">
          <mxGeometry relative="1" as="geometry">
            <mxPoint x="740" y="489.9999999999999" as="sourcePoint" />
            <mxPoint x="560.0000000000002" y="489.9999999999999" as="targetPoint" />
          </mxGeometry>
        </mxCell>
        <mxCell id="XpHpszUaNS6xZt6m8uRX-59" value="Thanh toán thành công" style="html=1;verticalAlign=bottom;endArrow=open;dashed=1;endSize=8;curved=0;rounded=0;" parent="XpHpszUaNS6xZt6m8uRX-1" target="XpHpszUaNS6xZt6m8uRX-58" edge="1">
          <mxGeometry relative="1" as="geometry">
            <mxPoint x="550" y="499.9999999999999" as="sourcePoint" />
            <mxPoint x="370.0000000000002" y="499.9999999999999" as="targetPoint" />
          </mxGeometry>
        </mxCell>
        <mxCell id="XpHpszUaNS6xZt6m8uRX-60" value="Hiển thị thanh toán thành công và&lt;br&gt;đã tham gia khóa học" style="html=1;verticalAlign=bottom;endArrow=open;dashed=1;endSize=8;curved=0;rounded=0;" parent="XpHpszUaNS6xZt6m8uRX-1" edge="1">
          <mxGeometry relative="1" as="geometry">
            <mxPoint x="320" y="519.9999999999999" as="sourcePoint" />
            <mxPoint x="100" y="520" as="targetPoint" />
          </mxGeometry>
        </mxCell>
      </root>
    </mxGraphModel>
  </diagram>
</mxfile>
